<svg width="96" height="96" viewBox="0 0 96 96" fill="none" xmlns="http://www.w3.org/2000/svg" role="img" aria-labelledby="title desc">
  <title id="title">Make PPT 标志</title>
  <desc id="desc">渐变幻灯片与 AI 星芒组成的网站标志。</desc>
  <defs>
    <linearGradient id="mark-bg" x1="14" y1="10" x2="84" y2="88" gradientUnits="userSpaceOnUse">
      <stop stop-color="#7C9CFF"/>
      <stop offset="0.54" stop-color="#67E8F9"/>
      <stop offset="1" stop-color="#34D399"/>
    </linearGradient>
    <linearGradient id="slide-fill" x1="28" y1="28" x2="69" y2="70" gradientUnits="userSpaceOnUse">
      <stop stop-color="#FFFFFF"/>
      <stop offset="1" stop-color="#DFF7FF"/>
    </linearGradient>
    <filter id="soft-shadow" x="0" y="0" width="96" height="96" filterUnits="userSpaceOnUse" color-interpolation-filters="sRGB">
      <feDropShadow dx="0" dy="12" stdDeviation="10" flood-color="#07111F" flood-opacity="0.32"/>
    </filter>
  </defs>
  <rect x="8" y="8" width="80" height="80" rx="24" fill="#0A1324"/>
  <rect x="9" y="9" width="78" height="78" rx="23" fill="url(#mark-bg)" opacity="0.22"/>
  <g filter="url(#soft-shadow)">
    <rect x="24" y="28" width="44" height="34" rx="8" fill="url(#slide-fill)"/>
    <rect x="30" y="35" width="24" height="4" rx="2" fill="#2563EB"/>
    <rect x="30" y="44" width="31" height="4" rx="2" fill="#8CA3C8"/>
    <rect x="30" y="53" width="18" height="4" rx="2" fill="#67E8F9"/>
    <path d="M39 72H57" stroke="#DFF7FF" stroke-width="5" stroke-linecap="round"/>
    <path d="M48 62V72" stroke="#DFF7FF" stroke-width="5" stroke-linecap="round"/>
  </g>
  <path d="M70 22L72.6 29.4L80 32L72.6 34.6L70 42L67.4 34.6L60 32L67.4 29.4L70 22Z" fill="#DFF7FF"/>
  <path d="M21 20L22.6 24.4L27 26L22.6 27.6L21 32L19.4 27.6L15 26L19.4 24.4L21 20Z" fill="#67E8F9"/>
</svg>
