<svg xmlns="http://www.w3.org/2000/svg" viewBox="0 0 64 64" role="img" aria-label="Baba Growth">
  <defs>
    <linearGradient id="bg" x1="10" y1="8" x2="54" y2="56" gradientUnits="userSpaceOnUse">
      <stop offset="0" stop-color="#f8fcff"/>
      <stop offset="0.52" stop-color="#dff3ff"/>
      <stop offset="1" stop-color="#cbe4ff"/>
    </linearGradient>
    <linearGradient id="mark" x1="18" y1="14" x2="48" y2="52" gradientUnits="userSpaceOnUse">
      <stop offset="0" stop-color="#2764ff"/>
      <stop offset="1" stop-color="#12b8ff"/>
    </linearGradient>
  </defs>
  <rect width="64" height="64" rx="18" fill="url(#bg)"/>
  <path d="M18 46V18h18.5c6.4 0 10.3 3.1 10.3 8.1 0 2.7-1.4 5-3.7 6.2 3.2 1.1 5.1 3.5 5.1 6.8 0 5.7-4.3 8.9-11.4 8.9H18Zm9.1-17.1h7.6c2 0 3.1-1 3.1-2.6s-1.1-2.5-3.1-2.5h-7.6v5.1Zm0 11.4h8.8c2.2 0 3.4-1.1 3.4-2.9 0-1.7-1.2-2.8-3.4-2.8h-8.8v5.7Z" fill="url(#mark)"/>
  <circle cx="49" cy="16" r="4.2" fill="#12b8ff"/>
  <path d="M45 15.8h8" stroke="#2764ff" stroke-width="2" stroke-linecap="round" opacity=".55"/>
</svg>
